<mxfile host="app.diagrams.net" agent="Mozilla/5.0 (X11; Ubuntu; Linux x86_64; rv:143.0) Gecko/20100101 Firefox/143.0" version="28.2.5">
  <diagram name="Page-1" id="9xMt0R_ICVEO2HSczq0F">
    <mxGraphModel dx="1228" dy="1748" grid="1" gridSize="10" guides="1" tooltips="1" connect="1" arrows="1" fold="1" page="1" pageScale="1" pageWidth="827" pageHeight="1169" math="0" shadow="0">
      <root>
        <mxCell id="0" />
        <mxCell id="1" parent="0" />
        <mxCell id="XXoP3RxlfCI_UvfDqyCo-1" value="" style="rounded=0;whiteSpace=wrap;html=1;" parent="1" vertex="1">
          <mxGeometry x="130" y="-40" width="860" height="610" as="geometry" />
        </mxCell>
        <mxCell id="XXoP3RxlfCI_UvfDqyCo-2" value="&lt;div&gt;Utilisateur&lt;/div&gt;" style="shape=umlActor;verticalLabelPosition=bottom;verticalAlign=top;html=1;outlineConnect=0;" parent="1" vertex="1">
          <mxGeometry x="50" y="260" width="30" height="60" as="geometry" />
        </mxCell>
        <mxCell id="XXoP3RxlfCI_UvfDqyCo-3" value="Consulter les projets" style="ellipse;whiteSpace=wrap;html=1;" parent="1" vertex="1">
          <mxGeometry x="260" y="140" width="140" height="70" as="geometry" />
        </mxCell>
        <mxCell id="XXoP3RxlfCI_UvfDqyCo-4" value="" style="endArrow=none;html=1;rounded=0;exitX=0.5;exitY=0.5;exitDx=0;exitDy=0;exitPerimeter=0;entryX=0;entryY=0.5;entryDx=0;entryDy=0;" parent="1" source="XXoP3RxlfCI_UvfDqyCo-2" target="XXoP3RxlfCI_UvfDqyCo-3" edge="1">
          <mxGeometry width="50" height="50" relative="1" as="geometry">
            <mxPoint x="390" y="330" as="sourcePoint" />
            <mxPoint x="440" y="280" as="targetPoint" />
          </mxGeometry>
        </mxCell>
        <mxCell id="XXoP3RxlfCI_UvfDqyCo-5" value="créer projet" style="ellipse;whiteSpace=wrap;html=1;" parent="1" vertex="1">
          <mxGeometry x="500" y="70" width="140" height="70" as="geometry" />
        </mxCell>
        <mxCell id="XXoP3RxlfCI_UvfDqyCo-6" value="supprimer projet" style="ellipse;whiteSpace=wrap;html=1;" parent="1" vertex="1">
          <mxGeometry x="500" y="160" width="140" height="70" as="geometry" />
        </mxCell>
        <mxCell id="XXoP3RxlfCI_UvfDqyCo-7" value="modifier projet" style="ellipse;whiteSpace=wrap;html=1;" parent="1" vertex="1">
          <mxGeometry x="510" y="240" width="140" height="70" as="geometry" />
        </mxCell>
        <mxCell id="XXoP3RxlfCI_UvfDqyCo-10" value="Extends" style="endArrow=block;endSize=16;endFill=0;html=1;rounded=0;exitX=1;exitY=0.5;exitDx=0;exitDy=0;entryX=0;entryY=0.5;entryDx=0;entryDy=0;" parent="1" source="XXoP3RxlfCI_UvfDqyCo-3" target="XXoP3RxlfCI_UvfDqyCo-5" edge="1">
          <mxGeometry width="160" relative="1" as="geometry">
            <mxPoint x="330" y="310" as="sourcePoint" />
            <mxPoint x="490" y="310" as="targetPoint" />
          </mxGeometry>
        </mxCell>
        <mxCell id="XXoP3RxlfCI_UvfDqyCo-11" value="Extends" style="endArrow=block;endSize=16;endFill=0;html=1;rounded=0;exitX=1;exitY=1;exitDx=0;exitDy=0;entryX=0;entryY=0.5;entryDx=0;entryDy=0;" parent="1" source="XXoP3RxlfCI_UvfDqyCo-3" target="XXoP3RxlfCI_UvfDqyCo-14" edge="1">
          <mxGeometry width="160" relative="1" as="geometry">
            <mxPoint x="480" y="460" as="sourcePoint" />
            <mxPoint x="640" y="460" as="targetPoint" />
          </mxGeometry>
        </mxCell>
        <mxCell id="XXoP3RxlfCI_UvfDqyCo-12" value="Extends" style="endArrow=block;endSize=16;endFill=0;html=1;rounded=0;exitX=1;exitY=0.5;exitDx=0;exitDy=0;entryX=0.046;entryY=0.234;entryDx=0;entryDy=0;entryPerimeter=0;" parent="1" source="XXoP3RxlfCI_UvfDqyCo-3" target="XXoP3RxlfCI_UvfDqyCo-7" edge="1">
          <mxGeometry width="160" relative="1" as="geometry">
            <mxPoint x="480" y="310" as="sourcePoint" />
            <mxPoint x="640" y="310" as="targetPoint" />
          </mxGeometry>
        </mxCell>
        <mxCell id="XXoP3RxlfCI_UvfDqyCo-13" value="Extends" style="endArrow=block;endSize=16;endFill=0;html=1;rounded=0;exitX=1;exitY=0.5;exitDx=0;exitDy=0;entryX=0;entryY=0.5;entryDx=0;entryDy=0;" parent="1" source="XXoP3RxlfCI_UvfDqyCo-3" target="XXoP3RxlfCI_UvfDqyCo-6" edge="1">
          <mxGeometry width="160" relative="1" as="geometry">
            <mxPoint x="480" y="310" as="sourcePoint" />
            <mxPoint x="640" y="310" as="targetPoint" />
          </mxGeometry>
        </mxCell>
        <mxCell id="XXoP3RxlfCI_UvfDqyCo-14" value="Consulter les tâches" style="ellipse;whiteSpace=wrap;html=1;" parent="1" vertex="1">
          <mxGeometry x="500" y="340" width="140" height="70" as="geometry" />
        </mxCell>
        <mxCell id="XXoP3RxlfCI_UvfDqyCo-15" value="créer tâche" style="ellipse;whiteSpace=wrap;html=1;" parent="1" vertex="1">
          <mxGeometry x="740" y="270" width="140" height="70" as="geometry" />
        </mxCell>
        <mxCell id="XXoP3RxlfCI_UvfDqyCo-16" value="supprimer tâche" style="ellipse;whiteSpace=wrap;html=1;" parent="1" vertex="1">
          <mxGeometry x="740" y="360" width="140" height="70" as="geometry" />
        </mxCell>
        <mxCell id="XXoP3RxlfCI_UvfDqyCo-17" value="modifier tâche" style="ellipse;whiteSpace=wrap;html=1;" parent="1" vertex="1">
          <mxGeometry x="750" y="440" width="140" height="70" as="geometry" />
        </mxCell>
        <mxCell id="XXoP3RxlfCI_UvfDqyCo-18" value="Extends" style="endArrow=block;endSize=16;endFill=0;html=1;rounded=0;exitX=1;exitY=0.5;exitDx=0;exitDy=0;entryX=0;entryY=0.5;entryDx=0;entryDy=0;" parent="1" source="XXoP3RxlfCI_UvfDqyCo-14" target="XXoP3RxlfCI_UvfDqyCo-15" edge="1">
          <mxGeometry width="160" relative="1" as="geometry">
            <mxPoint x="640" y="375" as="sourcePoint" />
            <mxPoint x="730" y="510" as="targetPoint" />
          </mxGeometry>
        </mxCell>
        <mxCell id="XXoP3RxlfCI_UvfDqyCo-19" value="Extends" style="endArrow=block;endSize=16;endFill=0;html=1;rounded=0;exitX=1;exitY=0.5;exitDx=0;exitDy=0;entryX=0.046;entryY=0.234;entryDx=0;entryDy=0;entryPerimeter=0;" parent="1" source="XXoP3RxlfCI_UvfDqyCo-14" target="XXoP3RxlfCI_UvfDqyCo-17" edge="1">
          <mxGeometry width="160" relative="1" as="geometry">
            <mxPoint x="640" y="375" as="sourcePoint" />
            <mxPoint x="880" y="510" as="targetPoint" />
          </mxGeometry>
        </mxCell>
        <mxCell id="XXoP3RxlfCI_UvfDqyCo-20" value="Extends" style="endArrow=block;endSize=16;endFill=0;html=1;rounded=0;exitX=1;exitY=0.5;exitDx=0;exitDy=0;entryX=0;entryY=0.5;entryDx=0;entryDy=0;" parent="1" source="XXoP3RxlfCI_UvfDqyCo-14" target="XXoP3RxlfCI_UvfDqyCo-16" edge="1">
          <mxGeometry width="160" relative="1" as="geometry">
            <mxPoint x="640" y="375" as="sourcePoint" />
            <mxPoint x="880" y="510" as="targetPoint" />
          </mxGeometry>
        </mxCell>
        <mxCell id="vHjOI4dweVdOWlPuSbRG-1" value="lire un projet" style="ellipse;whiteSpace=wrap;html=1;" vertex="1" parent="1">
          <mxGeometry x="490" y="-10" width="140" height="70" as="geometry" />
        </mxCell>
        <mxCell id="vHjOI4dweVdOWlPuSbRG-2" value="Extends" style="endArrow=block;endSize=16;endFill=0;html=1;rounded=0;exitX=0.931;exitY=0.28;exitDx=0;exitDy=0;entryX=0.054;entryY=0.731;entryDx=0;entryDy=0;entryPerimeter=0;exitPerimeter=0;" edge="1" parent="1" source="XXoP3RxlfCI_UvfDqyCo-3" target="vHjOI4dweVdOWlPuSbRG-1">
          <mxGeometry width="160" relative="1" as="geometry">
            <mxPoint x="380" y="130" as="sourcePoint" />
            <mxPoint x="480" y="60" as="targetPoint" />
          </mxGeometry>
        </mxCell>
        <mxCell id="vHjOI4dweVdOWlPuSbRG-3" value="lire une tâche" style="ellipse;whiteSpace=wrap;html=1;" vertex="1" parent="1">
          <mxGeometry x="730" y="180" width="140" height="70" as="geometry" />
        </mxCell>
        <mxCell id="vHjOI4dweVdOWlPuSbRG-4" value="Extends" style="endArrow=block;endSize=16;endFill=0;html=1;rounded=0;exitX=0.966;exitY=0.234;exitDx=0;exitDy=0;entryX=0;entryY=1;entryDx=0;entryDy=0;exitPerimeter=0;" edge="1" parent="1" source="XXoP3RxlfCI_UvfDqyCo-14" target="vHjOI4dweVdOWlPuSbRG-3">
          <mxGeometry width="160" relative="1" as="geometry">
            <mxPoint x="640" y="340" as="sourcePoint" />
            <mxPoint x="740" y="270" as="targetPoint" />
          </mxGeometry>
        </mxCell>
      </root>
    </mxGraphModel>
  </diagram>
</mxfile>
